<mxfile host="app.diagrams.net" modified="2024-09-01T02:12:50.768Z" agent="Mozilla/5.0 (Macintosh; Intel Mac OS X 10_15_7) AppleWebKit/537.36 (KHTML, like Gecko) Chrome/128.0.0.0 Safari/537.36" version="24.6.5" etag="XGPDHFG9dH-A8FdVtwFj" type="github">
  <diagram name="第 1 页" id="aBfPryMZR6XZo2oPd5ud">
    <mxGraphModel>
      <root>
        <mxCell id="0" />
        <mxCell id="1" parent="0" />
      </root>
    </mxGraphModel>
  </diagram>
</mxfile>
